<svg xmlns="http://www.w3.org/2000/svg" xmlns:xlink="http://www.w3.org/1999/xlink" width="500" zoomAndPan="magnify" viewBox="0 0 375 202.499994" height="270" preserveAspectRatio="xMidYMid meet" version="1.0"><defs><g/><clipPath id="73457bc7e7"><path d="M 4.0625 18.226562 L 174.742188 18.226562 L 174.742188 188.90625 L 4.0625 188.90625 Z M 4.0625 18.226562 " clip-rule="nonzero"/></clipPath><clipPath id="08f3917d1a"><path d="M 89.402344 18.226562 C 42.269531 18.226562 4.0625 56.433594 4.0625 103.566406 C 4.0625 150.699219 42.269531 188.90625 89.402344 188.90625 C 136.535156 188.90625 174.742188 150.699219 174.742188 103.566406 C 174.742188 56.433594 136.535156 18.226562 89.402344 18.226562 Z M 89.402344 18.226562 " clip-rule="nonzero"/></clipPath><clipPath id="cfd66572db"><path d="M 231.105469 170 L 236 170 L 236 173 L 231.105469 173 Z M 156 170 L 216.710938 170 L 216.710938 173 L 156 173 Z M 156 170 " clip-rule="nonzero"/></clipPath></defs><g clip-path="url(#73457bc7e7)"><g clip-path="url(#08f3917d1a)"><path fill="#ff8210" d="M 4.0625 18.226562 L 174.742188 18.226562 L 174.742188 188.90625 L 4.0625 188.90625 Z M 4.0625 18.226562 " fill-opacity="1" fill-rule="nonzero"/></g></g><g fill="#ffffff" fill-opacity="1"><g transform="translate(87.688377, 122.697602)"><g><path d="M 2.109375 -20.109375 C 2.109375 -23.421875 2.703125 -26.46875 3.890625 -29.25 C 5.085938 -32.03125 6.828125 -34.46875 9.109375 -36.5625 C 11.304688 -38.550781 13.769531 -40.0625 16.5 -41.09375 C 19.226562 -42.132812 22.113281 -42.65625 25.15625 -42.65625 C 31.363281 -42.65625 36.46875 -40.6875 40.46875 -36.75 C 44.46875 -32.8125 46.46875 -27.78125 46.46875 -21.65625 C 46.46875 -18.425781 45.921875 -15.445312 44.828125 -12.71875 C 43.742188 -9.988281 42.15625 -7.566406 40.0625 -5.453125 C 37.863281 -3.273438 35.40625 -1.628906 32.6875 -0.515625 C 29.976562 0.597656 27.03125 1.15625 23.84375 1.15625 C 17.4375 1.15625 12.210938 -0.816406 8.171875 -4.765625 C 4.128906 -8.710938 2.109375 -13.828125 2.109375 -20.109375 Z M 25.875 -6.359375 C 27.8125 -6.359375 29.316406 -7.175781 30.390625 -8.8125 C 31.460938 -10.457031 32 -12.753906 32 -15.703125 C 32 -21.109375 31.035156 -25.71875 29.109375 -29.53125 C 27.191406 -33.34375 24.972656 -35.25 22.453125 -35.25 C 20.597656 -35.25 19.160156 -34.378906 18.140625 -32.640625 C 17.117188 -30.910156 16.609375 -28.46875 16.609375 -25.3125 C 16.609375 -20.09375 17.550781 -15.628906 19.4375 -11.921875 C 21.320312 -8.210938 23.46875 -6.359375 25.875 -6.359375 Z M 25.875 -6.359375 "/></g></g></g><g fill="#ffffff" fill-opacity="1"><g transform="translate(136.295867, 122.697602)"><g><path d="M 7.15625 -16.453125 C 7.15625 -21.140625 6.988281 -24.695312 6.65625 -27.125 C 6.320312 -29.550781 5.828125 -31.03125 5.171875 -31.5625 C 5.066406 -31.644531 4.269531 -31.914062 2.78125 -32.375 C 1.300781 -32.84375 0.5625 -33.722656 0.5625 -35.015625 C 0.5625 -35.648438 0.832031 -36.253906 1.375 -36.828125 C 1.914062 -37.398438 2.726562 -37.9375 3.8125 -38.4375 C 6.25 -39.550781 8.707031 -40.4375 11.1875 -41.09375 C 13.664062 -41.757812 15.738281 -42.09375 17.40625 -42.09375 C 18.257812 -42.09375 18.910156 -41.925781 19.359375 -41.59375 C 19.804688 -41.257812 20.109375 -40.722656 20.265625 -39.984375 C 20.453125 -39.210938 20.578125 -38.269531 20.640625 -37.15625 C 20.710938 -36.050781 20.921875 -35.5 21.265625 -35.5 C 21.691406 -35.5 22.273438 -35.972656 23.015625 -36.921875 C 23.222656 -37.210938 23.394531 -37.441406 23.53125 -37.609375 C 24.800781 -39.191406 26.023438 -40.332031 27.203125 -41.03125 C 28.390625 -41.738281 29.65625 -42.09375 31 -42.09375 C 33.019531 -42.09375 34.640625 -41.375 35.859375 -39.9375 C 37.078125 -38.507812 37.6875 -36.617188 37.6875 -34.265625 C 37.6875 -32.140625 37.09375 -30.375 35.90625 -28.96875 C 34.726562 -27.570312 33.265625 -26.875 31.515625 -26.875 C 30.054688 -26.875 28.570312 -27.519531 27.0625 -28.8125 C 25.550781 -30.113281 24.476562 -30.765625 23.84375 -30.765625 C 22.675781 -30.765625 21.867188 -29.894531 21.421875 -28.15625 C 20.972656 -26.425781 20.75 -22.738281 20.75 -17.09375 C 20.75 -13.332031 20.8125 -10.898438 20.9375 -9.796875 C 21.070312 -8.703125 21.3125 -7.953125 21.65625 -7.546875 C 21.84375 -7.335938 22.703125 -6.898438 24.234375 -6.234375 C 25.773438 -5.578125 26.546875 -4.613281 26.546875 -3.34375 C 26.546875 -1.9375 25.648438 -0.945312 23.859375 -0.375 C 22.078125 0.195312 18.785156 0.484375 13.984375 0.484375 C 9.453125 0.484375 6.351562 0.195312 4.6875 -0.375 C 3.019531 -0.945312 2.1875 -1.9375 2.1875 -3.34375 C 2.1875 -4.582031 3.035156 -5.601562 4.734375 -6.40625 C 5.390625 -6.71875 5.835938 -6.96875 6.078125 -7.15625 C 6.472656 -7.445312 6.75 -8.113281 6.90625 -9.15625 C 7.070312 -10.207031 7.15625 -12.640625 7.15625 -16.453125 Z M 7.15625 -16.453125 "/></g></g></g><g fill="#000000" fill-opacity="1"><g transform="translate(172.662152, 122.697602)"><g><path d="M 27.578125 -24.84375 L 27.578125 -28.65625 C 27.578125 -31.28125 27.253906 -33.085938 26.609375 -34.078125 C 25.960938 -35.078125 24.832031 -35.578125 23.21875 -35.578125 C 21.488281 -35.578125 19.59375 -34.566406 17.53125 -32.546875 C 17.34375 -32.367188 17.195312 -32.238281 17.09375 -32.15625 C 16.988281 -32.070312 16.84375 -31.941406 16.65625 -31.765625 C 13.820312 -29.085938 11.304688 -27.75 9.109375 -27.75 C 7.703125 -27.75 6.59375 -28.128906 5.78125 -28.890625 C 4.976562 -29.660156 4.578125 -30.722656 4.578125 -32.078125 C 4.578125 -34.910156 6.507812 -37.394531 10.375 -39.53125 C 14.238281 -41.664062 19.007812 -42.734375 24.6875 -42.734375 C 30.382812 -42.734375 34.539062 -41.640625 37.15625 -39.453125 C 39.78125 -37.265625 41.09375 -33.800781 41.09375 -29.0625 C 41.09375 -27.625 41.039062 -25.804688 40.9375 -23.609375 C 40.832031 -21.410156 40.78125 -19.914062 40.78125 -19.125 L 40.78125 -13.203125 C 40.78125 -12.035156 40.847656 -11.1875 40.984375 -10.65625 C 41.117188 -10.125 41.359375 -9.753906 41.703125 -9.546875 C 41.992188 -9.328125 42.859375 -8.984375 44.296875 -8.515625 C 45.742188 -8.054688 46.46875 -7.335938 46.46875 -6.359375 C 46.46875 -5.378906 46.113281 -4.453125 45.40625 -3.578125 C 44.707031 -2.703125 43.628906 -1.84375 42.171875 -1 C 40.984375 -0.300781 39.785156 0.226562 38.578125 0.59375 C 37.367188 0.96875 36.257812 1.15625 35.25 1.15625 C 33.769531 1.15625 32.300781 0.394531 30.84375 -1.125 C 29.382812 -2.65625 28.578125 -3.421875 28.421875 -3.421875 C 28.285156 -3.421875 27.914062 -3.195312 27.3125 -2.75 C 23.832031 -0.144531 20.109375 1.15625 16.140625 1.15625 C 11.816406 1.15625 8.359375 0 5.765625 -2.3125 C 3.171875 -4.632812 1.875 -7.71875 1.875 -11.5625 C 1.875 -15.90625 3.53125 -19.28125 6.84375 -21.6875 C 10.15625 -24.101562 14.789062 -25.3125 20.75 -25.3125 C 21.707031 -25.3125 22.753906 -25.269531 23.890625 -25.1875 C 25.023438 -25.113281 26.253906 -25 27.578125 -24.84375 Z M 27.5 -12.59375 L 27.5 -18.953125 C 27 -19.085938 26.484375 -19.1875 25.953125 -19.25 C 25.421875 -19.320312 24.828125 -19.359375 24.171875 -19.359375 C 21.703125 -19.359375 19.8125 -18.800781 18.5 -17.6875 C 17.1875 -16.570312 16.53125 -14.96875 16.53125 -12.875 C 16.53125 -11.070312 17.015625 -9.65625 17.984375 -8.625 C 18.953125 -7.59375 20.285156 -7.078125 21.984375 -7.078125 C 23.859375 -7.078125 25.242188 -7.523438 26.140625 -8.421875 C 27.046875 -9.328125 27.5 -10.71875 27.5 -12.59375 Z M 27.5 -12.59375 "/></g></g></g><g fill="#000000" fill-opacity="1"><g transform="translate(218.408041, 122.697602)"><g><path d="M 20.359375 -39.15625 L 20.359375 -36.65625 C 20.359375 -36.28125 20.394531 -35.992188 20.46875 -35.796875 C 20.550781 -35.597656 20.671875 -35.5 20.828125 -35.5 C 21.253906 -35.5 21.757812 -35.882812 22.34375 -36.65625 C 22.6875 -37.101562 22.953125 -37.429688 23.140625 -37.640625 C 24.535156 -39.203125 26.070312 -40.332031 27.75 -41.03125 C 29.4375 -41.738281 31.472656 -42.09375 33.859375 -42.09375 C 39.191406 -42.09375 43.035156 -40.609375 45.390625 -37.640625 C 47.753906 -34.671875 48.9375 -29.804688 48.9375 -23.046875 L 48.9375 -16.140625 C 48.9375 -13.066406 48.988281 -10.953125 49.09375 -9.796875 C 49.195312 -8.640625 49.378906 -7.890625 49.640625 -7.546875 C 49.804688 -7.367188 50.554688 -6.914062 51.890625 -6.1875 C 53.234375 -5.457031 53.90625 -4.507812 53.90625 -3.34375 C 53.90625 -1.9375 53.0625 -0.945312 51.375 -0.375 C 49.695312 0.195312 46.628906 0.484375 42.171875 0.484375 C 37.691406 0.484375 34.601562 0.195312 32.90625 -0.375 C 31.21875 -0.945312 30.375 -1.9375 30.375 -3.34375 C 30.375 -4.582031 31.21875 -5.601562 32.90625 -6.40625 C 33.570312 -6.71875 34.023438 -6.96875 34.265625 -7.15625 C 34.660156 -7.5 34.9375 -8.234375 35.09375 -9.359375 C 35.257812 -10.484375 35.34375 -12.703125 35.34375 -16.015625 C 35.34375 -22.878906 34.847656 -27.285156 33.859375 -29.234375 C 32.878906 -31.179688 31.09375 -32.15625 28.5 -32.15625 C 25.664062 -32.15625 23.597656 -30.960938 22.296875 -28.578125 C 21.003906 -26.191406 20.359375 -22.363281 20.359375 -17.09375 C 20.359375 -13.988281 20.414062 -11.726562 20.53125 -10.3125 C 20.644531 -8.894531 20.847656 -7.988281 21.140625 -7.59375 C 21.304688 -7.382812 22.039062 -6.914062 23.34375 -6.1875 C 24.65625 -5.457031 25.3125 -4.507812 25.3125 -3.34375 C 25.3125 -1.9375 24.46875 -0.945312 22.78125 -0.375 C 21.101562 0.195312 18.039062 0.484375 13.59375 0.484375 C 9.144531 0.484375 6.0625 0.195312 4.34375 -0.375 C 2.632812 -0.945312 1.78125 -1.9375 1.78125 -3.34375 C 1.78125 -4.582031 2.628906 -5.601562 4.328125 -6.40625 C 4.992188 -6.71875 5.445312 -6.96875 5.6875 -7.15625 C 6.101562 -7.5 6.398438 -8.304688 6.578125 -9.578125 C 6.753906 -10.847656 6.84375 -13.84375 6.84375 -18.5625 C 6.84375 -23.644531 6.734375 -26.984375 6.515625 -28.578125 C 6.304688 -30.171875 5.9375 -31.164062 5.40625 -31.5625 C 5.300781 -31.644531 4.503906 -31.914062 3.015625 -32.375 C 1.535156 -32.84375 0.796875 -33.722656 0.796875 -35.015625 C 0.796875 -35.648438 1.066406 -36.253906 1.609375 -36.828125 C 2.148438 -37.398438 2.960938 -37.9375 4.046875 -38.4375 C 6.492188 -39.570312 8.925781 -40.460938 11.34375 -41.109375 C 13.769531 -41.765625 15.84375 -42.09375 17.5625 -42.09375 C 18.625 -42.09375 19.351562 -41.882812 19.75 -41.46875 C 20.15625 -41.0625 20.359375 -40.289062 20.359375 -39.15625 Z M 20.359375 -39.15625 "/></g></g></g><g fill="#000000" fill-opacity="1"><g transform="translate(272.30154, 122.697602)"><g><path d="M 12.875 1 C 12.632812 1.5 12.472656 1.878906 12.390625 2.140625 C 12.316406 2.410156 12.28125 2.648438 12.28125 2.859375 C 12.28125 4.816406 13.234375 6.429688 15.140625 7.703125 C 17.046875 8.984375 19.539062 9.625 22.625 9.625 C 25.90625 9.625 28.457031 9.128906 30.28125 8.140625 C 32.113281 7.160156 33.03125 5.796875 33.03125 4.046875 C 33.03125 2.910156 32.695312 2.070312 32.03125 1.53125 C 31.375 0.988281 30.359375 0.71875 28.984375 0.71875 C 28.554688 0.71875 27.242188 0.84375 25.046875 1.09375 C 22.847656 1.34375 20.847656 1.46875 19.046875 1.46875 C 18.085938 1.46875 17.09375 1.425781 16.0625 1.34375 C 15.03125 1.269531 13.96875 1.15625 12.875 1 Z M 22.375 -18.078125 C 24.363281 -18.078125 25.921875 -18.773438 27.046875 -20.171875 C 28.171875 -21.566406 28.734375 -23.492188 28.734375 -25.953125 C 28.734375 -28.816406 28.0625 -31.203125 26.71875 -33.109375 C 25.382812 -35.015625 23.753906 -35.96875 21.828125 -35.96875 C 19.992188 -35.96875 18.5 -35.257812 17.34375 -33.84375 C 16.195312 -32.425781 15.625 -30.566406 15.625 -28.265625 C 15.625 -25.296875 16.265625 -22.851562 17.546875 -20.9375 C 18.835938 -19.03125 20.445312 -18.078125 22.375 -18.078125 Z M 7.078125 -1.390625 C 5.535156 -2.128906 4.382812 -3.015625 3.625 -4.046875 C 2.875 -5.085938 2.5 -6.296875 2.5 -7.671875 C 2.5 -9.285156 3.019531 -10.734375 4.0625 -12.015625 C 5.113281 -13.304688 6.660156 -14.375 8.703125 -15.21875 C 7.273438 -16.414062 6.171875 -17.953125 5.390625 -19.828125 C 4.609375 -21.710938 4.21875 -23.804688 4.21875 -26.109375 C 4.21875 -31.066406 5.914062 -35.007812 9.3125 -37.9375 C 12.71875 -40.863281 17.328125 -42.328125 23.140625 -42.328125 C 25.441406 -42.328125 27.785156 -41.972656 30.171875 -41.265625 C 32.554688 -40.566406 33.816406 -40.21875 33.953125 -40.21875 C 35.140625 -40.21875 36.492188 -40.5625 38.015625 -41.25 C 39.546875 -41.945312 41.007812 -42.90625 42.40625 -44.125 C 43.101562 -43.75 43.613281 -43.28125 43.9375 -42.71875 C 44.269531 -42.164062 44.4375 -41.492188 44.4375 -40.703125 C 44.4375 -39.398438 43.984375 -38.1875 43.078125 -37.0625 C 42.179688 -35.9375 40.796875 -34.867188 38.921875 -33.859375 C 39.390625 -32.929688 39.75 -31.957031 40 -30.9375 C 40.257812 -29.925781 40.390625 -28.863281 40.390625 -27.75 C 40.390625 -22.945312 38.566406 -18.984375 34.921875 -15.859375 C 31.273438 -12.734375 26.601562 -11.171875 20.90625 -11.171875 C 19.1875 -11.171875 17.65625 -11.304688 16.3125 -11.578125 C 14.976562 -11.859375 13.769531 -12.289062 12.6875 -12.875 C 12.3125 -12.476562 12.03125 -12.09375 11.84375 -11.71875 C 11.65625 -11.351562 11.5625 -10.972656 11.5625 -10.578125 C 11.5625 -9.410156 12.191406 -8.546875 13.453125 -7.984375 C 14.710938 -7.429688 16.679688 -7.15625 19.359375 -7.15625 C 21.003906 -7.15625 23.425781 -7.332031 26.625 -7.6875 C 29.832031 -8.050781 32.21875 -8.234375 33.78125 -8.234375 C 37.5 -8.234375 40.34375 -7.429688 42.3125 -5.828125 C 44.289062 -4.222656 45.28125 -1.921875 45.28125 1.078125 C 45.28125 5.503906 43.046875 9.226562 38.578125 12.25 C 34.109375 15.269531 28.46875 16.78125 21.65625 16.78125 C 15.4375 16.78125 10.539062 15.769531 6.96875 13.75 C 3.40625 11.738281 1.625 9.023438 1.625 5.609375 C 1.625 4.015625 2.0625 2.65625 2.9375 1.53125 C 3.8125 0.40625 5.191406 -0.566406 7.078125 -1.390625 Z M 7.078125 -1.390625 "/></g></g></g><g fill="#000000" fill-opacity="1"><g transform="translate(316.576877, 122.697602)"><g><path d="M 38.921875 -20.03125 L 18.953125 -20.03125 C 18.023438 -20.03125 17.441406 -19.9375 17.203125 -19.75 C 16.972656 -19.570312 16.859375 -19.226562 16.859375 -18.71875 C 16.859375 -15.914062 17.894531 -13.476562 19.96875 -11.40625 C 22.050781 -9.34375 24.585938 -8.3125 27.578125 -8.3125 C 29.804688 -8.3125 32.148438 -8.894531 34.609375 -10.0625 C 37.078125 -11.226562 38.515625 -11.8125 38.921875 -11.8125 C 39.679688 -11.8125 40.332031 -11.578125 40.875 -11.109375 C 41.425781 -10.648438 41.703125 -10.097656 41.703125 -9.453125 C 41.703125 -8.398438 41.425781 -7.425781 40.875 -6.53125 C 40.332031 -5.644531 39.398438 -4.6875 38.078125 -3.65625 C 36.117188 -2.09375 33.898438 -0.898438 31.421875 -0.078125 C 28.941406 0.742188 26.335938 1.15625 23.609375 1.15625 C 17.222656 1.15625 12.039062 -0.835938 8.0625 -4.828125 C 4.09375 -8.816406 2.109375 -13.992188 2.109375 -20.359375 C 2.109375 -26.796875 4.160156 -32.09375 8.265625 -36.25 C 12.367188 -40.40625 17.585938 -42.484375 23.921875 -42.484375 C 29.441406 -42.484375 33.96875 -40.929688 37.5 -37.828125 C 41.039062 -34.734375 42.8125 -30.800781 42.8125 -26.03125 C 42.8125 -23.519531 42.546875 -21.890625 42.015625 -21.140625 C 41.484375 -20.398438 40.453125 -20.03125 38.921875 -20.03125 Z M 18.171875 -25.953125 L 28.65625 -25.953125 C 29.21875 -25.953125 29.613281 -26.054688 29.84375 -26.265625 C 30.082031 -26.484375 30.203125 -26.867188 30.203125 -27.421875 C 30.203125 -29.859375 29.550781 -31.851562 28.25 -33.40625 C 26.957031 -34.957031 25.304688 -35.734375 23.296875 -35.734375 C 21.460938 -35.734375 19.890625 -34.894531 18.578125 -33.21875 C 17.265625 -31.550781 16.609375 -29.515625 16.609375 -27.109375 C 16.609375 -26.679688 16.722656 -26.390625 16.953125 -26.234375 C 17.179688 -26.078125 17.585938 -25.984375 18.171875 -25.953125 Z M 18.171875 -25.953125 "/></g></g></g><g fill="#000000" fill-opacity="1"><g transform="translate(360.857615, 122.697602)"><g/></g></g><g clip-path="url(#cfd66572db)"><path fill="#000000" d="M 156.644531 170.097656 L 235.515625 170.097656 L 235.515625 172.34375 L 156.644531 172.34375 Z M 156.644531 170.097656 " fill-opacity="1" fill-rule="nonzero"/></g><g fill="#000000" fill-opacity="1"><g transform="translate(156.645095, 168.602105)"><g><path d="M 0.75 -7.125 C 0.75 -9.40625 1.53125 -11.296875 3.09375 -12.796875 C 4.65625 -14.304688 6.628906 -15.0625 9.015625 -15.0625 C 10.703125 -15.0625 12.097656 -14.65625 13.203125 -13.84375 C 14.316406 -13.039062 14.875 -12.046875 14.875 -10.859375 C 14.875 -10.171875 14.660156 -9.613281 14.234375 -9.1875 C 13.804688 -8.757812 13.25 -8.546875 12.5625 -8.546875 C 11.988281 -8.546875 11.515625 -8.710938 11.140625 -9.046875 C 10.773438 -9.390625 10.34375 -10.164062 9.84375 -11.375 C 9.707031 -11.75 9.472656 -12.046875 9.140625 -12.265625 C 8.804688 -12.484375 8.425781 -12.59375 8 -12.59375 C 7.269531 -12.59375 6.707031 -12.296875 6.3125 -11.703125 C 5.914062 -11.109375 5.71875 -10.257812 5.71875 -9.15625 C 5.71875 -7.375 6.125 -5.914062 6.9375 -4.78125 C 7.757812 -3.644531 8.8125 -3.078125 10.09375 -3.078125 C 10.695312 -3.078125 11.410156 -3.269531 12.234375 -3.65625 C 13.054688 -4.039062 13.578125 -4.234375 13.796875 -4.234375 C 14.085938 -4.234375 14.328125 -4.144531 14.515625 -3.96875 C 14.710938 -3.789062 14.8125 -3.5625 14.8125 -3.28125 C 14.8125 -3 14.707031 -2.695312 14.5 -2.375 C 14.300781 -2.050781 14.03125 -1.75 13.6875 -1.46875 C 12.863281 -0.820312 12.03125 -0.347656 11.1875 -0.046875 C 10.351562 0.253906 9.445312 0.40625 8.46875 0.40625 C 6.175781 0.40625 4.316406 -0.285156 2.890625 -1.671875 C 1.460938 -3.066406 0.75 -4.882812 0.75 -7.125 Z M 0.75 -7.125 "/></g></g></g><g fill="#000000" fill-opacity="1"><g transform="translate(171.714179, 168.602105)"><g/></g></g><g fill="#000000" fill-opacity="1"><g transform="translate(180.24066, 168.602105)"><g><path d="M 1.59375 -18.859375 C 1.59375 -19.546875 1.910156 -20.132812 2.546875 -20.625 C 3.179688 -21.113281 3.957031 -21.359375 4.875 -21.359375 C 5.71875 -21.359375 6.414062 -21.140625 6.96875 -20.703125 C 7.53125 -20.265625 7.8125 -19.722656 7.8125 -19.078125 C 7.8125 -18.410156 7.5 -17.84375 6.875 -17.375 C 6.257812 -16.914062 5.5 -16.6875 4.59375 -16.6875 C 3.707031 -16.6875 2.984375 -16.890625 2.421875 -17.296875 C 1.867188 -17.710938 1.59375 -18.234375 1.59375 -18.859375 Z M 7.484375 -9.25 L 7.484375 -5.640625 C 7.484375 -4.472656 7.507812 -3.691406 7.5625 -3.296875 C 7.625 -2.910156 7.722656 -2.65625 7.859375 -2.53125 C 7.953125 -2.46875 8.117188 -2.378906 8.359375 -2.265625 C 8.953125 -1.984375 9.25 -1.625 9.25 -1.1875 C 9.25 -0.6875 8.945312 -0.332031 8.34375 -0.125 C 7.738281 0.0703125 6.644531 0.171875 5.0625 0.171875 C 3.5 0.171875 2.414062 0.0703125 1.8125 -0.125 C 1.21875 -0.332031 0.921875 -0.6875 0.921875 -1.1875 C 0.921875 -1.625 1.210938 -1.984375 1.796875 -2.265625 C 2.023438 -2.378906 2.1875 -2.46875 2.28125 -2.53125 C 2.425781 -2.664062 2.523438 -2.957031 2.578125 -3.40625 C 2.640625 -3.851562 2.671875 -4.753906 2.671875 -6.109375 C 2.671875 -8.210938 2.632812 -9.546875 2.5625 -10.109375 C 2.488281 -10.671875 2.351562 -11.03125 2.15625 -11.1875 C 2.113281 -11.21875 1.832031 -11.3125 1.3125 -11.46875 C 0.800781 -11.625 0.546875 -11.929688 0.546875 -12.390625 C 0.546875 -12.617188 0.640625 -12.832031 0.828125 -13.03125 C 1.023438 -13.238281 1.316406 -13.429688 1.703125 -13.609375 C 2.578125 -14.003906 3.441406 -14.316406 4.296875 -14.546875 C 5.148438 -14.785156 5.878906 -14.90625 6.484375 -14.90625 C 6.910156 -14.90625 7.191406 -14.816406 7.328125 -14.640625 C 7.460938 -14.472656 7.53125 -14.097656 7.53125 -13.515625 C 7.53125 -13.429688 7.523438 -13.226562 7.515625 -12.90625 C 7.492188 -11.601562 7.484375 -10.382812 7.484375 -9.25 Z M 7.484375 -9.25 "/></g></g></g><g fill="#000000" fill-opacity="1"><g transform="translate(189.86461, 168.602105)"><g/></g></g><g fill="#000000" fill-opacity="1"><g transform="translate(198.391091, 168.602105)"><g><path d="M 2.453125 -4.8125 L 2.5 -12.359375 L 0.78125 -12.359375 C 0.53125 -12.359375 0.363281 -12.410156 0.28125 -12.515625 C 0.207031 -12.617188 0.171875 -12.941406 0.171875 -13.484375 C 0.171875 -13.941406 0.515625 -14.414062 1.203125 -14.90625 C 1.335938 -15.007812 1.445312 -15.09375 1.53125 -15.15625 C 1.757812 -15.332031 2.082031 -15.578125 2.5 -15.890625 C 4.4375 -17.359375 5.71875 -18.09375 6.34375 -18.09375 C 6.707031 -18.09375 6.941406 -18.039062 7.046875 -17.9375 C 7.148438 -17.84375 7.203125 -17.546875 7.203125 -17.046875 L 7.203125 -14.65625 L 10.78125 -14.65625 C 11.082031 -14.65625 11.273438 -14.613281 11.359375 -14.53125 C 11.453125 -14.457031 11.5 -14.289062 11.5 -14.03125 C 11.5 -13.28125 11.453125 -12.816406 11.359375 -12.640625 C 11.265625 -12.472656 10.992188 -12.390625 10.546875 -12.390625 L 7.203125 -12.390625 L 7.203125 -5.578125 C 7.203125 -4.367188 7.3125 -3.546875 7.53125 -3.109375 C 7.75 -2.679688 8.132812 -2.46875 8.6875 -2.46875 C 9.0625 -2.46875 9.519531 -2.585938 10.0625 -2.828125 C 10.601562 -3.066406 10.976562 -3.1875 11.1875 -3.1875 C 11.40625 -3.1875 11.597656 -3.101562 11.765625 -2.9375 C 11.929688 -2.78125 12.015625 -2.578125 12.015625 -2.328125 C 12.015625 -1.660156 11.507812 -1.03125 10.5 -0.4375 C 9.5 0.144531 8.34375 0.4375 7.03125 0.4375 C 5.414062 0.4375 4.25 0.0351562 3.53125 -0.765625 C 2.8125 -1.566406 2.453125 -2.878906 2.453125 -4.703125 Z M 2.453125 -4.8125 "/></g></g></g><g fill="#000000" fill-opacity="1"><g transform="translate(210.406957, 168.602105)"><g/></g></g><g fill="#000000" fill-opacity="1"><g transform="translate(218.933439, 168.602105)"><g><path d="M 7.140625 -12.015625 C 7.140625 -11.785156 7.457031 -10.972656 8.09375 -9.578125 L 8.328125 -9.046875 C 8.921875 -7.703125 9.320312 -6.84375 9.53125 -6.46875 C 9.738281 -6.09375 9.894531 -5.90625 10 -5.90625 C 10.050781 -5.90625 10.113281 -5.96875 10.1875 -6.09375 C 10.257812 -6.226562 10.351562 -6.445312 10.46875 -6.75 C 10.625 -7.175781 10.84375 -7.757812 11.125 -8.5 C 11.8125 -10.300781 12.15625 -11.347656 12.15625 -11.640625 C 12.15625 -11.804688 12.125 -11.929688 12.0625 -12.015625 C 12.007812 -12.109375 11.859375 -12.21875 11.609375 -12.34375 C 11.265625 -12.5 11.03125 -12.65625 10.90625 -12.8125 C 10.78125 -12.976562 10.71875 -13.179688 10.71875 -13.421875 C 10.71875 -13.890625 10.976562 -14.226562 11.5 -14.4375 C 12.019531 -14.65625 12.878906 -14.765625 14.078125 -14.765625 C 15.148438 -14.765625 15.9375 -14.648438 16.4375 -14.421875 C 16.945312 -14.203125 17.203125 -13.867188 17.203125 -13.421875 C 17.203125 -13.191406 17.128906 -13 16.984375 -12.84375 C 16.835938 -12.695312 16.5 -12.503906 15.96875 -12.265625 C 15.363281 -12.015625 14.890625 -11.546875 14.546875 -10.859375 C 14.492188 -10.734375 14.445312 -10.640625 14.40625 -10.578125 C 14.125 -10.015625 13.472656 -8.425781 12.453125 -5.8125 C 11.429688 -3.207031 10.515625 -0.953125 9.703125 0.953125 C 9.003906 2.628906 8.148438 3.890625 7.140625 4.734375 C 6.128906 5.585938 4.976562 6.015625 3.6875 6.015625 C 2.769531 6.015625 2.035156 5.769531 1.484375 5.28125 C 0.929688 4.800781 0.65625 4.15625 0.65625 3.34375 C 0.65625 2.75 0.847656 2.242188 1.234375 1.828125 C 1.628906 1.410156 2.109375 1.203125 2.671875 1.203125 C 3.035156 1.203125 3.363281 1.269531 3.65625 1.40625 C 3.957031 1.550781 4.195312 1.753906 4.375 2.015625 C 4.425781 2.085938 4.5 2.1875 4.59375 2.3125 C 4.851562 2.707031 5.117188 2.90625 5.390625 2.90625 C 5.878906 2.90625 6.269531 2.679688 6.5625 2.234375 C 6.851562 1.796875 7 1.207031 7 0.46875 C 7 -0.445312 6.617188 -1.734375 5.859375 -3.390625 L 5.765625 -3.609375 C 4.816406 -5.671875 4.070312 -7.28125 3.53125 -8.4375 C 3 -9.59375 2.628906 -10.375 2.421875 -10.78125 C 2.378906 -10.851562 2.332031 -10.945312 2.28125 -11.0625 C 1.976562 -11.65625 1.613281 -12.03125 1.1875 -12.1875 C 1.15625 -12.195312 1.113281 -12.207031 1.0625 -12.21875 C 0.3125 -12.5 -0.0625 -12.875 -0.0625 -13.34375 C -0.0625 -13.875 0.257812 -14.242188 0.90625 -14.453125 C 1.550781 -14.671875 2.71875 -14.78125 4.40625 -14.78125 C 5.851562 -14.78125 6.863281 -14.675781 7.4375 -14.46875 C 8.007812 -14.269531 8.296875 -13.921875 8.296875 -13.421875 C 8.296875 -13.128906 8.101562 -12.859375 7.71875 -12.609375 C 7.332031 -12.367188 7.140625 -12.171875 7.140625 -12.015625 Z M 7.140625 -12.015625 "/></g></g></g><path fill="#000000" d="M 235.515625 170.097656 L 252.574219 170.097656 L 252.574219 172.34375 L 235.515625 172.34375 Z M 235.515625 170.097656 " fill-opacity="1" fill-rule="nonzero"/><g fill="#000000" fill-opacity="1"><g transform="translate(235.516751, 168.602105)"><g/></g></g><g fill="#000000" fill-opacity="1"><g transform="translate(244.043232, 168.602105)"><g/></g></g><path fill="#000000" d="M 252.574219 170.097656 L 365.179688 170.097656 L 365.179688 172.34375 L 252.574219 172.34375 Z M 252.574219 170.097656 " fill-opacity="1" fill-rule="nonzero"/><g fill="#000000" fill-opacity="1"><g transform="translate(252.572293, 168.602105)"><g><path d="M 2.453125 -4.8125 L 2.5 -12.359375 L 0.78125 -12.359375 C 0.53125 -12.359375 0.363281 -12.410156 0.28125 -12.515625 C 0.207031 -12.617188 0.171875 -12.941406 0.171875 -13.484375 C 0.171875 -13.941406 0.515625 -14.414062 1.203125 -14.90625 C 1.335938 -15.007812 1.445312 -15.09375 1.53125 -15.15625 C 1.757812 -15.332031 2.082031 -15.578125 2.5 -15.890625 C 4.4375 -17.359375 5.71875 -18.09375 6.34375 -18.09375 C 6.707031 -18.09375 6.941406 -18.039062 7.046875 -17.9375 C 7.148438 -17.84375 7.203125 -17.546875 7.203125 -17.046875 L 7.203125 -14.65625 L 10.78125 -14.65625 C 11.082031 -14.65625 11.273438 -14.613281 11.359375 -14.53125 C 11.453125 -14.457031 11.5 -14.289062 11.5 -14.03125 C 11.5 -13.28125 11.453125 -12.816406 11.359375 -12.640625 C 11.265625 -12.472656 10.992188 -12.390625 10.546875 -12.390625 L 7.203125 -12.390625 L 7.203125 -5.578125 C 7.203125 -4.367188 7.3125 -3.546875 7.53125 -3.109375 C 7.75 -2.679688 8.132812 -2.46875 8.6875 -2.46875 C 9.0625 -2.46875 9.519531 -2.585938 10.0625 -2.828125 C 10.601562 -3.066406 10.976562 -3.1875 11.1875 -3.1875 C 11.40625 -3.1875 11.597656 -3.101562 11.765625 -2.9375 C 11.929688 -2.78125 12.015625 -2.578125 12.015625 -2.328125 C 12.015625 -1.660156 11.507812 -1.03125 10.5 -0.4375 C 9.5 0.144531 8.34375 0.4375 7.03125 0.4375 C 5.414062 0.4375 4.25 0.0351562 3.53125 -0.765625 C 2.8125 -1.566406 2.453125 -2.878906 2.453125 -4.703125 Z M 2.453125 -4.8125 "/></g></g></g><g fill="#000000" fill-opacity="1"><g transform="translate(264.58816, 168.602105)"><g/></g></g><g fill="#000000" fill-opacity="1"><g transform="translate(273.114641, 168.602105)"><g><path d="M 1.59375 -18.859375 C 1.59375 -19.546875 1.910156 -20.132812 2.546875 -20.625 C 3.179688 -21.113281 3.957031 -21.359375 4.875 -21.359375 C 5.71875 -21.359375 6.414062 -21.140625 6.96875 -20.703125 C 7.53125 -20.265625 7.8125 -19.722656 7.8125 -19.078125 C 7.8125 -18.410156 7.5 -17.84375 6.875 -17.375 C 6.257812 -16.914062 5.5 -16.6875 4.59375 -16.6875 C 3.707031 -16.6875 2.984375 -16.890625 2.421875 -17.296875 C 1.867188 -17.710938 1.59375 -18.234375 1.59375 -18.859375 Z M 7.484375 -9.25 L 7.484375 -5.640625 C 7.484375 -4.472656 7.507812 -3.691406 7.5625 -3.296875 C 7.625 -2.910156 7.722656 -2.65625 7.859375 -2.53125 C 7.953125 -2.46875 8.117188 -2.378906 8.359375 -2.265625 C 8.953125 -1.984375 9.25 -1.625 9.25 -1.1875 C 9.25 -0.6875 8.945312 -0.332031 8.34375 -0.125 C 7.738281 0.0703125 6.644531 0.171875 5.0625 0.171875 C 3.5 0.171875 2.414062 0.0703125 1.8125 -0.125 C 1.21875 -0.332031 0.921875 -0.6875 0.921875 -1.1875 C 0.921875 -1.625 1.210938 -1.984375 1.796875 -2.265625 C 2.023438 -2.378906 2.1875 -2.46875 2.28125 -2.53125 C 2.425781 -2.664062 2.523438 -2.957031 2.578125 -3.40625 C 2.640625 -3.851562 2.671875 -4.753906 2.671875 -6.109375 C 2.671875 -8.210938 2.632812 -9.546875 2.5625 -10.109375 C 2.488281 -10.671875 2.351562 -11.03125 2.15625 -11.1875 C 2.113281 -11.21875 1.832031 -11.3125 1.3125 -11.46875 C 0.800781 -11.625 0.546875 -11.929688 0.546875 -12.390625 C 0.546875 -12.617188 0.640625 -12.832031 0.828125 -13.03125 C 1.023438 -13.238281 1.316406 -13.429688 1.703125 -13.609375 C 2.578125 -14.003906 3.441406 -14.316406 4.296875 -14.546875 C 5.148438 -14.785156 5.878906 -14.90625 6.484375 -14.90625 C 6.910156 -14.90625 7.191406 -14.816406 7.328125 -14.640625 C 7.460938 -14.472656 7.53125 -14.097656 7.53125 -13.515625 C 7.53125 -13.429688 7.523438 -13.226562 7.515625 -12.90625 C 7.492188 -11.601562 7.484375 -10.382812 7.484375 -9.25 Z M 7.484375 -9.25 "/></g></g></g><g fill="#000000" fill-opacity="1"><g transform="translate(282.73859, 168.602105)"><g/></g></g><g fill="#000000" fill-opacity="1"><g transform="translate(291.265071, 168.602105)"><g><path d="M 7.203125 -13.859375 L 7.203125 -12.96875 C 7.203125 -12.84375 7.210938 -12.742188 7.234375 -12.671875 C 7.265625 -12.597656 7.3125 -12.5625 7.375 -12.5625 C 7.519531 -12.5625 7.734375 -12.734375 8.015625 -13.078125 C 8.222656 -13.328125 8.394531 -13.519531 8.53125 -13.65625 C 8.9375 -14.070312 9.414062 -14.382812 9.96875 -14.59375 C 10.519531 -14.800781 11.132812 -14.90625 11.8125 -14.90625 C 12.488281 -14.90625 13.101562 -14.800781 13.65625 -14.59375 C 14.207031 -14.382812 14.753906 -14.054688 15.296875 -13.609375 C 15.515625 -13.429688 15.734375 -13.1875 15.953125 -12.875 C 16.179688 -12.570312 16.335938 -12.421875 16.421875 -12.421875 C 16.546875 -12.421875 16.742188 -12.550781 17.015625 -12.8125 C 17.128906 -12.925781 17.222656 -13.015625 17.296875 -13.078125 C 17.941406 -13.703125 18.59375 -14.160156 19.25 -14.453125 C 19.90625 -14.753906 20.609375 -14.90625 21.359375 -14.90625 C 22.128906 -14.90625 22.84375 -14.757812 23.5 -14.46875 C 24.164062 -14.1875 24.707031 -13.789062 25.125 -13.28125 C 25.5625 -12.757812 25.875 -12.101562 26.0625 -11.3125 C 26.25 -10.519531 26.34375 -9.414062 26.34375 -8 L 26.34375 -5.796875 C 26.34375 -4.691406 26.359375 -3.925781 26.390625 -3.5 C 26.429688 -3.082031 26.5 -2.804688 26.59375 -2.671875 C 26.644531 -2.609375 26.90625 -2.445312 27.375 -2.1875 C 27.851562 -1.925781 28.09375 -1.59375 28.09375 -1.1875 C 28.09375 -0.6875 27.796875 -0.332031 27.203125 -0.125 C 26.609375 0.0703125 25.519531 0.171875 23.9375 0.171875 C 22.351562 0.171875 21.257812 0.0703125 20.65625 -0.125 C 20.0625 -0.332031 19.765625 -0.6875 19.765625 -1.1875 C 19.765625 -1.625 20.066406 -1.984375 20.671875 -2.265625 C 20.898438 -2.378906 21.054688 -2.46875 21.140625 -2.53125 C 21.285156 -2.65625 21.382812 -2.914062 21.4375 -3.3125 C 21.5 -3.71875 21.53125 -4.523438 21.53125 -5.734375 C 21.53125 -8.078125 21.367188 -9.585938 21.046875 -10.265625 C 20.722656 -10.953125 20.140625 -11.296875 19.296875 -11.296875 C 18.441406 -11.296875 17.804688 -10.894531 17.390625 -10.09375 C 16.972656 -9.289062 16.765625 -8.066406 16.765625 -6.421875 C 16.765625 -5.191406 16.785156 -4.300781 16.828125 -3.75 C 16.867188 -3.195312 16.941406 -2.835938 17.046875 -2.671875 C 17.109375 -2.609375 17.375 -2.445312 17.84375 -2.1875 C 18.320312 -1.925781 18.5625 -1.59375 18.5625 -1.1875 C 18.5625 -0.6875 18.253906 -0.332031 17.640625 -0.125 C 17.035156 0.0703125 15.945312 0.171875 14.375 0.171875 C 12.800781 0.171875 11.71875 0.0703125 11.125 -0.125 C 10.53125 -0.332031 10.234375 -0.6875 10.234375 -1.1875 C 10.234375 -1.625 10.523438 -1.984375 11.109375 -2.265625 C 11.335938 -2.378906 11.492188 -2.46875 11.578125 -2.53125 C 11.722656 -2.664062 11.828125 -2.953125 11.890625 -3.390625 C 11.953125 -3.828125 11.984375 -4.609375 11.984375 -5.734375 C 11.984375 -8.054688 11.820312 -9.5625 11.5 -10.25 C 11.175781 -10.945312 10.585938 -11.296875 9.734375 -11.296875 C 8.859375 -11.296875 8.21875 -10.878906 7.8125 -10.046875 C 7.40625 -9.222656 7.203125 -7.921875 7.203125 -6.140625 C 7.203125 -5.003906 7.222656 -4.175781 7.265625 -3.65625 C 7.304688 -3.144531 7.378906 -2.820312 7.484375 -2.6875 C 7.535156 -2.613281 7.796875 -2.445312 8.265625 -2.1875 C 8.734375 -1.925781 8.96875 -1.59375 8.96875 -1.1875 C 8.96875 -0.6875 8.664062 -0.332031 8.0625 -0.125 C 7.46875 0.0703125 6.382812 0.171875 4.8125 0.171875 C 3.238281 0.171875 2.148438 0.0703125 1.546875 -0.125 C 0.941406 -0.332031 0.640625 -0.6875 0.640625 -1.1875 C 0.640625 -1.625 0.9375 -1.984375 1.53125 -2.265625 C 1.769531 -2.378906 1.929688 -2.46875 2.015625 -2.53125 C 2.160156 -2.65625 2.265625 -2.941406 2.328125 -3.390625 C 2.390625 -3.835938 2.421875 -4.894531 2.421875 -6.5625 C 2.421875 -8.363281 2.378906 -9.546875 2.296875 -10.109375 C 2.222656 -10.671875 2.09375 -11.023438 1.90625 -11.171875 C 1.875 -11.203125 1.59375 -11.296875 1.0625 -11.453125 C 0.539062 -11.617188 0.28125 -11.929688 0.28125 -12.390625 C 0.28125 -12.617188 0.375 -12.832031 0.5625 -13.03125 C 0.757812 -13.238281 1.050781 -13.429688 1.4375 -13.609375 C 2.300781 -14.003906 3.160156 -14.316406 4.015625 -14.546875 C 4.867188 -14.785156 5.601562 -14.90625 6.21875 -14.90625 C 6.59375 -14.90625 6.847656 -14.832031 6.984375 -14.6875 C 7.128906 -14.539062 7.203125 -14.265625 7.203125 -13.859375 Z M 7.203125 -13.859375 "/></g></g></g><g fill="#000000" fill-opacity="1"><g transform="translate(319.363069, 168.602105)"><g/></g></g><g fill="#000000" fill-opacity="1"><g transform="translate(327.88955, 168.602105)"><g><path d="M 13.765625 -7.09375 L 6.703125 -7.09375 C 6.378906 -7.09375 6.175781 -7.054688 6.09375 -6.984375 C 6.007812 -6.921875 5.96875 -6.800781 5.96875 -6.625 C 5.96875 -5.632812 6.332031 -4.769531 7.0625 -4.03125 C 7.800781 -3.300781 8.703125 -2.9375 9.765625 -2.9375 C 10.554688 -2.9375 11.382812 -3.140625 12.25 -3.546875 C 13.125 -3.960938 13.628906 -4.171875 13.765625 -4.171875 C 14.046875 -4.171875 14.28125 -4.085938 14.46875 -3.921875 C 14.664062 -3.765625 14.765625 -3.570312 14.765625 -3.34375 C 14.765625 -2.96875 14.664062 -2.625 14.46875 -2.3125 C 14.28125 -2 13.953125 -1.660156 13.484375 -1.296875 C 12.785156 -0.742188 12 -0.320312 11.125 -0.03125 C 10.25 0.257812 9.328125 0.40625 8.359375 0.40625 C 6.097656 0.40625 4.265625 -0.296875 2.859375 -1.703125 C 1.453125 -3.117188 0.75 -4.953125 0.75 -7.203125 C 0.75 -9.484375 1.472656 -11.359375 2.921875 -12.828125 C 4.378906 -14.304688 6.226562 -15.046875 8.46875 -15.046875 C 10.414062 -15.046875 12.015625 -14.492188 13.265625 -13.390625 C 14.523438 -12.296875 15.15625 -10.90625 15.15625 -9.21875 C 15.15625 -8.320312 15.0625 -7.742188 14.875 -7.484375 C 14.6875 -7.222656 14.316406 -7.09375 13.765625 -7.09375 Z M 6.421875 -9.1875 L 10.140625 -9.1875 C 10.335938 -9.1875 10.476562 -9.222656 10.5625 -9.296875 C 10.644531 -9.367188 10.6875 -9.503906 10.6875 -9.703125 C 10.6875 -10.566406 10.457031 -11.269531 10 -11.8125 C 9.539062 -12.363281 8.957031 -12.640625 8.25 -12.640625 C 7.601562 -12.640625 7.046875 -12.34375 6.578125 -11.75 C 6.109375 -11.164062 5.875 -10.445312 5.875 -9.59375 C 5.875 -9.445312 5.914062 -9.34375 6 -9.28125 C 6.082031 -9.226562 6.222656 -9.195312 6.421875 -9.1875 Z M 6.421875 -9.1875 "/></g></g></g><g fill="#000000" fill-opacity="1"><g transform="translate(343.563643, 168.602105)"><g/></g></g><g fill="#000000" fill-opacity="1"><g transform="translate(352.090124, 168.602105)"><g><path d="M 0.859375 -10.453125 C 0.859375 -11.804688 1.304688 -12.894531 2.203125 -13.71875 C 3.097656 -14.539062 4.273438 -14.953125 5.734375 -14.953125 C 6.097656 -14.953125 6.5 -14.921875 6.9375 -14.859375 C 7.382812 -14.796875 7.65625 -14.765625 7.75 -14.765625 C 7.914062 -14.765625 8.179688 -14.84375 8.546875 -15 C 8.910156 -15.15625 9.1875 -15.234375 9.375 -15.234375 C 9.5625 -15.234375 9.765625 -15.160156 9.984375 -15.015625 C 10.210938 -14.878906 10.421875 -14.695312 10.609375 -14.46875 C 11.003906 -13.914062 11.320312 -13.316406 11.5625 -12.671875 C 11.8125 -12.035156 11.9375 -11.46875 11.9375 -10.96875 C 11.9375 -10.582031 11.84375 -10.273438 11.65625 -10.046875 C 11.476562 -9.816406 11.242188 -9.703125 10.953125 -9.703125 C 10.710938 -9.703125 10.492188 -9.765625 10.296875 -9.890625 C 10.097656 -10.023438 9.863281 -10.273438 9.59375 -10.640625 C 9.519531 -10.734375 9.410156 -10.878906 9.265625 -11.078125 C 8.484375 -12.160156 7.6875 -12.703125 6.875 -12.703125 C 6.53125 -12.703125 6.234375 -12.59375 5.984375 -12.375 C 5.734375 -12.15625 5.609375 -11.890625 5.609375 -11.578125 C 5.609375 -10.953125 6.410156 -10.269531 8.015625 -9.53125 C 8.421875 -9.34375 8.738281 -9.191406 8.96875 -9.078125 C 10.21875 -8.472656 11.117188 -7.8125 11.671875 -7.09375 C 12.222656 -6.375 12.5 -5.503906 12.5 -4.484375 C 12.5 -3.078125 11.960938 -1.910156 10.890625 -0.984375 C 9.828125 -0.0546875 8.460938 0.40625 6.796875 0.40625 C 6.359375 0.40625 5.863281 0.351562 5.3125 0.25 C 4.757812 0.15625 4.425781 0.109375 4.3125 0.109375 C 4.164062 0.109375 3.941406 0.15625 3.640625 0.25 C 3.335938 0.351562 3.113281 0.40625 2.96875 0.40625 C 2.75 0.40625 2.519531 0.332031 2.28125 0.1875 C 2.050781 0.0390625 1.859375 -0.15625 1.703125 -0.40625 C 1.304688 -0.988281 0.992188 -1.597656 0.765625 -2.234375 C 0.546875 -2.867188 0.4375 -3.429688 0.4375 -3.921875 C 0.4375 -4.367188 0.539062 -4.734375 0.75 -5.015625 C 0.957031 -5.296875 1.226562 -5.4375 1.5625 -5.4375 C 2.039062 -5.4375 2.609375 -4.925781 3.265625 -3.90625 C 3.460938 -3.601562 3.613281 -3.378906 3.71875 -3.234375 C 4.019531 -2.785156 4.429688 -2.425781 4.953125 -2.15625 C 5.484375 -1.894531 6.03125 -1.765625 6.59375 -1.765625 C 7.113281 -1.765625 7.523438 -1.878906 7.828125 -2.109375 C 8.140625 -2.347656 8.296875 -2.671875 8.296875 -3.078125 C 8.296875 -3.773438 7.304688 -4.613281 5.328125 -5.59375 L 5.171875 -5.6875 C 3.410156 -6.53125 2.25 -7.285156 1.6875 -7.953125 C 1.132812 -8.617188 0.859375 -9.453125 0.859375 -10.453125 Z M 0.859375 -10.453125 "/></g></g></g></svg>